<svg width="707" height="106" viewBox="0 0 707 106" fill="none" xmlns="http://www.w3.org/2000/svg">
<path d="M64.66 5.72V24.9H24.62V45.62H54.58V64.24H24.62V104H0.68V5.72H64.66ZM101.183 38.9C103.983 34.6067 107.483 31.2467 111.683 28.82C115.883 26.3 120.549 25.04 125.683 25.04V50.38H119.103C113.129 50.38 108.649 51.6867 105.663 54.3C102.676 56.82 101.183 61.3 101.183 67.74V104H77.2425V25.88H101.183V38.9ZM172.685 105.12C165.032 105.12 158.125 103.487 151.965 100.22C145.899 96.9533 141.092 92.2867 137.545 86.22C134.092 80.1533 132.365 73.06 132.365 64.94C132.365 56.9133 134.139 49.8667 137.685 43.8C141.232 37.64 146.085 32.9267 152.245 29.66C158.405 26.3933 165.312 24.76 172.965 24.76C180.619 24.76 187.525 26.3933 193.685 29.66C199.845 32.9267 204.699 37.64 208.245 43.8C211.792 49.8667 213.565 56.9133 213.565 64.94C213.565 72.9667 211.745 80.06 208.105 86.22C204.559 92.2867 199.659 96.9533 193.405 100.22C187.245 103.487 180.339 105.12 172.685 105.12ZM172.685 84.4C177.259 84.4 181.132 82.72 184.305 79.36C187.572 76 189.205 71.1933 189.205 64.94C189.205 58.6867 187.619 53.88 184.445 50.52C181.365 47.16 177.539 45.48 172.965 45.48C168.299 45.48 164.425 47.16 161.345 50.52C158.265 53.7867 156.725 58.5933 156.725 64.94C156.725 71.1933 158.219 76 161.205 79.36C164.285 82.72 168.112 84.4 172.685 84.4ZM273.866 25.04C283.013 25.04 290.293 28.0267 295.706 34C301.213 39.88 303.966 48 303.966 58.36V104H280.166V61.58C280.166 56.3533 278.813 52.2933 276.106 49.4C273.399 46.5067 269.759 45.06 265.186 45.06C260.613 45.06 256.973 46.5067 254.266 49.4C251.559 52.2933 250.206 56.3533 250.206 61.58V104H226.266V25.88H250.206V36.24C252.633 32.7867 255.899 30.08 260.006 28.12C264.113 26.0667 268.733 25.04 273.866 25.04ZM364.142 83.7V104H351.962C343.282 104 336.515 101.9 331.662 97.7C326.809 93.4067 324.382 86.4533 324.382 76.84V45.76H314.862V25.88H324.382V6.84H348.322V25.88H364.002V45.76H348.322V77.12C348.322 79.4533 348.882 81.1333 350.002 82.16C351.122 83.1867 352.989 83.7 355.602 83.7H364.142ZM437.677 44.92V64.8H376.077V44.92H437.677ZM482.628 24.9V44.78H514.688V63.26H482.628V84.82H518.888V104H458.688V5.72H518.888V24.9H482.628ZM582.03 25.04C591.177 25.04 598.457 28.0267 603.87 34C609.377 39.88 612.13 48 612.13 58.36V104H588.33V61.58C588.33 56.3533 586.977 52.2933 584.27 49.4C581.563 46.5067 577.923 45.06 573.35 45.06C568.777 45.06 565.137 46.5067 562.43 49.4C559.723 52.2933 558.37 56.3533 558.37 61.58V104H534.43V25.88H558.37V36.24C560.797 32.7867 564.063 30.08 568.17 28.12C572.277 26.0667 576.897 25.04 582.03 25.04ZM624.006 64.8C624.006 56.7733 625.499 49.7267 628.486 43.66C631.566 37.5933 635.719 32.9267 640.946 29.66C646.173 26.3933 652.006 24.76 658.446 24.76C663.579 24.76 668.246 25.8333 672.446 27.98C676.739 30.1267 680.099 33.02 682.526 36.66V0.399999H706.466V104H682.526V92.8C680.286 96.5333 677.066 99.52 672.866 101.76C668.759 104 663.953 105.12 658.446 105.12C652.006 105.12 646.173 103.487 640.946 100.22C635.719 96.86 631.566 92.1467 628.486 86.08C625.499 79.92 624.006 72.8267 624.006 64.8ZM682.526 64.94C682.526 58.9667 680.846 54.2533 677.486 50.8C674.219 47.3467 670.206 45.62 665.446 45.62C660.686 45.62 656.626 47.3467 653.266 50.8C649.999 54.16 648.366 58.8267 648.366 64.8C648.366 70.7733 649.999 75.5333 653.266 79.08C656.626 82.5333 660.686 84.26 665.446 84.26C670.206 84.26 674.219 82.5333 677.486 79.08C680.846 75.6267 682.526 70.9133 682.526 64.94Z" fill="#FFF"/>
</svg>
