<svg width="319" height="155" viewBox="0 0 319 155" fill="none" xmlns="http://www.w3.org/2000/svg">
<path d="M97 138.5C100 138.5 104 135.083 109 128.25C114 121.25 118.917 112.333 123.75 101.5C128.75 90.5 131.75 85 132.75 85C133.917 85 134.5 85.6667 134.5 87C134.5 91.6667 132.083 99.0833 127.25 109.25C114.083 137.25 102.917 151.25 93.75 151.25C86.0833 151.25 80.5833 149.917 77.25 147.25C75.75 145.75 75 129.917 75 99.75L34 102.75C30.8333 111.417 28 120.083 25.5 128.75C23 137.417 21.3333 142.75 20.5 144.75C18.6667 149.083 14.25 151.25 7.25 151.25C2.58333 151.25 0.25 149.25 0.25 145.25C0.25 141.25 3.41667 135.417 9.75 127.75C10.9167 126.25 14.75 118.167 21.25 103.5C18.9167 103.667 16.6667 103.75 14.5 103.75C8.66667 103.75 5.75 101.25 5.75 96.25C5.75 91.75 8.08333 89.5 12.75 89.5C13.0833 89.5 17.8333 89.9167 27 90.75C29.5 84.9167 32.1667 79.1667 35 73.5C56.8333 27.8333 71.8333 4.99999 80 4.99999C86.1667 4.99999 90.4167 33.5833 92.75 90.75H95C96.1667 90.75 96.75 91.5833 96.75 93.25C96.75 94.9167 95.5 96.3333 93 97.5C94 124.833 95.3333 138.5 97 138.5ZM37.75 92C57.25 92 69.6667 91.9167 75 91.75C74.8333 89.0833 74.6667 84.4167 74.5 77.75C74.3333 71.0833 74.1667 65.3333 74 60.5C73.8333 55.5 73.6667 50.3333 73.5 45C72.8333 33.5 71.8333 27.75 70.5 27.75C68.6667 27.75 64.9167 33.1667 59.25 44C53.5833 54.8333 49.1667 64 46 71.5C41.6667 82.3333 38.9167 89.1667 37.75 92ZM167.994 89.25L169.994 76.5C169.994 74.6667 169.411 73 168.244 71.5C167.077 70 165.577 69.25 163.744 69.25C157.577 69.25 152.244 73.9167 147.744 83.25C143.244 92.4167 140.994 101.25 140.994 109.75C140.994 118.25 142.744 125.167 146.244 130.5C149.744 135.667 153.994 138.25 158.994 138.25C164.161 138.25 168.744 137.083 172.744 134.75C176.744 132.417 180.411 129.083 183.744 124.75C190.744 115.583 196.744 105.167 201.744 93.5C203.077 90.5 204.077 88.3333 204.744 87C205.577 85.6667 206.411 85 207.244 85C208.244 85 208.744 85.6667 208.744 87C208.744 92.5 206.827 99.0833 202.994 106.75C199.161 114.417 195.911 120.333 193.244 124.5C190.744 128.5 187.494 132.75 183.494 137.25C175.161 146.583 164.744 151.25 152.244 151.25C142.744 151.25 135.494 147.917 130.494 141.25C125.661 134.417 123.244 127.167 123.244 119.5C123.244 100.5 127.327 86.0833 135.494 76.25C143.827 66.25 154.327 61.25 166.994 61.25C172.327 61.25 176.494 62.6667 179.494 65.5C182.661 68.1667 184.244 71.25 184.244 74.75C184.244 81.25 183.077 86.0833 180.744 89.25C178.411 92.4167 175.577 94 172.244 94C169.411 94 167.994 92.4167 167.994 89.25ZM215.527 136.5L215.777 144.25C215.777 148.917 214.444 151.25 211.777 151.25C207.777 151.25 203.944 150.75 200.277 149.75C196.611 148.583 194.777 147.083 194.777 145.25C194.777 143.25 195.194 136.667 196.027 125.5C197.027 114.167 197.527 105.667 197.527 100V85.5C197.527 42.8333 205.111 15.6667 220.277 3.99999C223.777 1.33333 227.361 -5.96046e-06 231.027 -5.96046e-06C232.694 -5.96046e-06 234.361 1.83333 236.027 5.5C237.694 9.16666 238.527 13.9167 238.527 19.75C238.527 34.0833 236.111 47.5 231.277 60C226.444 72.5 221.527 82.0833 216.527 88.75C216.361 92.9167 216.277 99.4167 216.277 108.25C216.944 107.25 220.444 101.583 226.777 91.25C233.111 80.9167 238.444 73.3333 242.777 68.5C247.277 63.6667 251.277 61.25 254.777 61.25C258.277 61.25 261.361 62.4167 264.027 64.75C266.861 67.0833 268.277 70 268.277 73.5C268.277 80.8333 267.444 91.6667 265.777 106C264.277 120.167 263.527 129.167 263.527 133C263.527 136.667 264.027 138.5 265.027 138.5C267.861 138.333 271.777 134.833 276.777 128C281.777 121 286.694 112.083 291.527 101.25C296.527 90.4167 299.527 85 300.527 85C301.694 85 302.277 85.6667 302.277 87C302.277 91.6667 299.861 99.0833 295.027 109.25C281.861 137.25 270.777 151.25 261.777 151.25C255.277 151.25 250.361 149.917 247.027 147.25C245.861 146.083 245.277 143.083 245.277 138.25C245.277 133.25 245.694 125.25 246.527 114.25C247.527 103.083 248.027 94.75 248.027 89.25C248.027 83.75 247.027 81 245.027 81C243.194 81 238.194 86.75 230.027 98.25C221.861 109.583 217.527 116.833 217.027 120C216.027 125.833 215.527 131.333 215.527 136.5ZM231.777 25.25C231.777 18.25 230.861 14.75 229.027 14.75C226.027 14.75 223.111 24 220.277 42.5C218.777 52.3333 217.694 63.75 217.027 76.75C226.861 56.25 231.777 39.0833 231.777 25.25ZM305.301 154.5C302.801 154.5 300.384 153.667 298.051 152C295.717 150.5 294.551 147.917 294.551 144.25C294.551 140.583 296.217 137.75 299.551 135.75C302.884 133.583 305.967 132.5 308.801 132.5C311.634 132.5 313.967 133.333 315.801 135C317.801 136.5 318.801 138.417 318.801 140.75C318.801 149.917 314.301 154.5 305.301 154.5Z" fill="white"/>
</svg>
